Coordinates
version=1
nRows=11
nColumns=63
inDegrees=yes

Units are S.I. units (second, meters, Newtons, ...)
If the header above contains a line with 'inDegrees', this indicates whether rotational values are in degrees (yes) or radians (no).

endheader
time	pelvis_tilt	pelvis_list	pelvis_rotation	pelvis_tx	pelvis_ty	pelvis_tz	hip_flexion_r	hip_adduction_r	hip_rotation_r	knee_angle_r	knee_angle_r_beta	ankle_angle_r	subtalar_angle_r	mtp_angle_r	hip_flexion_l	hip_adduction_l	hip_rotation_l	knee_angle_l	knee_angle_l_beta	ankle_angle_l	subtalar_angle_l	mtp_angle_l	L5_S1_Flex_Ext	L5_S1_Lat_Bending	L5_S1_axial_rotation	L4_L5_Flex_Ext	L4_L5_Lat_Bending	L4_L5_axial_rotation	L3_L4_Flex_Ext	L3_L4_Lat_Bending	L3_L4_axial_rotation	L2_L3_Flex_Ext	L2_L3_Lat_Bending	L2_L3_axial_rotation	L1_L2_Flex_Ext	L1_L2_Lat_Bending	L1_L2_axial_rotation	L1_T12_Flex_Ext	L1_T12_Lat_Bending	L1_T12_axial_rotation	Abs_r3	Abs_r2	Abs_r1	Abs_t1	Abs_t2	neck_flexion	neck_bending	neck_rotation	arm_flex_r	arm_add_r	arm_rot_r	elbow_flex_r	pro_sup_r	wrist_flex_r	wrist_dev_r	arm_flex_l	arm_add_l	arm_rot_l	elbow_flex_l	pro_sup_l	wrist_flex_l	wrist_dev_l
2.116667	4.262075	0.106472	81.790545	0.105682	0.697273	0.773637	-5.307048	2.662453	6.302091	11.944764	0.208475	34.152614	7.694232	0.000000	-7.826566	-1.237501	-10.161455	11.016775	0.192279	33.630038	-2.920282	0.000000	-0.538555	0.476315	1.226790	-1.000151	0.633499	1.303465	-0.884793	1.158111	1.303465	-0.615515	1.158111	1.073442	-0.500103	0.971301	0.996767	-0.307731	0.737811	0.920093	-3.846847	5.388167	6.823040	0.000000	0.000000	-7.941637	-6.860213	-2.652291	-2.171241	-21.522295	27.180102	33.830461	86.262741	2.235141	1.987850	50.032012	-9.447510	9.617340	143.679447	80.515284	-32.542892	-4.405545
2.133333	4.229299	0.141406	81.929929	0.105292	0.697074	0.773291	-5.466796	2.616542	6.178797	11.738036	0.204867	34.230214	7.780860	0.000000	-7.861473	-1.213628	-10.016693	10.980041	0.191638	33.764110	-2.829861	0.000000	-0.538915	0.473031	1.195678	-1.000820	0.629132	1.270408	-0.885384	1.150129	1.270408	-0.615926	1.150129	1.046218	-0.500437	0.964606	0.971488	-0.307936	0.732726	0.896758	-3.849418	5.351026	6.650002	0.000000	0.000000	-7.972832	-6.853841	-2.680869	-1.972369	-21.550126	27.282399	33.719261	86.629630	2.229539	2.024778	50.185719	-9.473009	9.564347	143.680749	80.759876	-32.855677	-5.028466
2.150000	4.186020	0.180553	82.066475	0.104930	0.696870	0.772920	-5.642322	2.574758	6.196283	11.511936	0.200921	34.254887	7.666583	0.000000	-7.907421	-1.183115	-9.918781	10.932177	0.190802	33.869636	-2.680432	0.000000	-0.539598	0.468845	1.166178	-1.002088	0.623564	1.239064	-0.886506	1.139950	1.239064	-0.616707	1.139950	1.020406	-0.501071	0.956069	0.947520	-0.308326	0.726241	0.874634	-3.854296	5.303671	6.485934	0.000000	0.000000	-7.993606	-6.858816	-2.698973	-1.799595	-21.562966	27.387659	33.592693	86.818125	2.218584	2.015016	50.327077	-9.543551	9.500137	143.683103	81.058531	-33.074729	-5.733528
2.166667	4.129208	0.215052	82.200255	0.104598	0.696654	0.772562	-5.812992	2.534082	6.337015	11.282903	0.196924	34.252556	7.382090	0.000000	-7.946602	-1.138769	-9.804775	10.887630	0.190025	33.902681	-2.593465	0.000000	-0.539446	0.463013	1.137082	-1.001806	0.615808	1.208149	-0.886257	1.125771	1.208149	-0.616533	1.125771	0.994947	-0.500930	0.944177	0.923879	-0.308240	0.717208	0.852811	-3.853212	5.237700	6.324107	0.000000	0.000000	-8.014652	-6.854247	-2.709874	-1.639927	-21.554261	27.517868	33.438225	86.878213	2.145907	1.913271	50.457822	-9.654703	9.446604	143.696814	81.316501	-33.214645	-6.487818
2.183333	4.071376	0.250329	82.296826	0.104290	0.696445	0.772281	-5.963437	2.486069	6.482383	11.084126	0.193455	34.258156	7.126476	0.000000	-7.992375	-1.083846	-9.707113	10.846217	0.189302	33.846058	-2.595199	0.000000	-0.540909	0.457346	1.113045	-1.004521	0.608270	1.182610	-0.888659	1.111991	1.182610	-0.618204	1.111991	0.973914	-0.502288	0.932620	0.904349	-0.309075	0.708429	0.834784	-3.863655	5.173588	6.190422	0.000000	0.000000	-8.014154	-6.870959	-2.715441	-1.475616	-21.559343	27.695299	33.294664	86.818543	2.073984	1.803065	50.579438	-9.793839	9.382619	143.716723	81.513380	-33.196577	-7.271785
2.200000	4.014958	0.276969	82.376986	0.103985	0.696224	0.772079	-6.078501	2.431381	6.564498	10.929777	0.190761	34.281251	6.958001	0.000000	-8.028669	-1.026965	-9.619218	10.825689	0.188944	33.689500	-2.690657	0.000000	-0.541869	0.452176	1.091014	-1.006305	0.601394	1.159202	-0.890236	1.099421	1.159202	-0.619302	1.099421	0.954637	-0.503179	0.922077	0.886449	-0.309624	0.700421	0.818260	-3.870515	5.115105	6.067891	0.000000	0.000000	-7.999306	-6.879517	-2.703254	-1.343319	-21.550211	27.740033	33.183458	86.824021	2.068844	1.751061	50.701624	-9.946715	9.320869	143.769896	81.782961	-33.185054	-7.852720
2.216667	3.964731	0.297900	82.431075	0.103699	0.696017	0.771993	-6.159475	2.384351	6.694856	10.822760	0.188893	34.283353	6.731341	0.000000	-8.059828	-0.969423	-9.526254	10.826413	0.188957	33.425528	-2.908990	0.000000	-0.543047	0.447990	1.067891	-1.008492	0.595827	1.134634	-0.892171	1.089243	1.134634	-0.620648	1.089243	0.934405	-0.504273	0.913541	0.867661	-0.310297	0.693937	0.800918	-3.878927	5.067753	5.939289	0.000000	0.000000	-7.965722	-6.887394	-2.649362	-1.175260	-21.556403	27.911129	33.058400	86.843391	2.024109	1.665885	50.814903	-10.127057	9.218317	143.839758	82.028997	-33.054925	-8.312401
2.233333	3.910308	0.298145	82.437169	0.103465	0.695802	0.772050	-6.173898	2.336242	6.888030	10.786045	0.188252	34.263854	6.435581	0.000000	-8.063176	-0.899694	-9.437507	10.856230	0.189477	33.084203	-3.238572	0.000000	-0.542119	0.443518	1.047799	-1.006769	0.589879	1.113286	-0.890647	1.078370	1.113286	-0.619588	1.078370	0.916824	-0.503412	0.904422	0.851337	-0.309767	0.687009	0.785849	-3.872301	5.017165	5.827543	0.000000	0.000000	-7.908541	-6.895732	-2.573311	-0.974760	-21.573048	28.243825	32.902732	86.809115	1.954835	1.492853	50.925263	-10.330259	9.102994	143.931364	82.241080	-32.909630	-8.612058
2.250000	3.869846	0.296622	82.411111	0.103239	0.695640	0.772217	-6.161402	2.291638	7.051866	10.786279	0.188256	34.226016	6.211267	0.000000	-8.064475	-0.829758	-9.296851	10.896581	0.190181	32.701815	-3.683184	0.000000	-0.541975	0.442025	1.022961	-1.006503	0.587894	1.086896	-0.890411	1.074740	1.086896	-0.619424	1.074740	0.895091	-0.503278	0.901378	0.831156	-0.309685	0.684697	0.767221	-3.871277	5.000277	5.689401	0.000000	0.000000	-7.842710	-6.931370	-2.381849	-0.712407	-21.632253	28.840822	32.735955	86.818443	1.765480	1.316442	50.986718	-10.585796	8.904228	144.023533	82.403143	-32.653024	-8.902714
2.266667	3.833192	0.288501	82.328938	0.103097	0.695520	0.772495	-6.107109	2.247312	7.256122	10.836951	0.189140	34.178974	5.994786	0.000000	-8.056906	-0.747765	-9.107831	10.937875	0.190902	32.334562	-4.216728	0.000000	-0.542273	0.441335	1.002747	-1.007056	0.586976	1.065419	-0.890901	1.073062	1.065419	-0.619764	1.073062	0.877404	-0.503555	0.899970	0.814732	-0.309855	0.683628	0.752060	-3.873405	4.992470	5.576979	0.000000	0.000000	-7.758659	-6.982721	-2.141603	-0.399802	-21.711289	29.673505	32.515691	86.803655	1.548764	1.039050	51.004076	-10.868790	8.652378	144.117167	82.496408	-32.329658	-9.076454
2.283333	3.798276	0.269752	82.187963	0.103047	0.695441	0.772837	-6.015476	2.207196	7.555298	10.925994	0.190695	34.121108	5.723765	0.000000	-8.035407	-0.655358	-8.903970	10.970171	0.191466	32.053428	-4.742320	0.000000	-0.542510	0.441227	0.992347	-1.007495	0.586831	1.054369	-0.891290	1.072798	1.054369	-0.620035	1.072798	0.868304	-0.503775	0.899749	0.806282	-0.309990	0.683460	0.744261	-3.875094	4.991243	5.519139	0.000000	0.000000	-7.664301	-7.045070	-1.867553	-0.081793	-21.804931	30.616964	32.271153	86.786175	1.354296	0.724424	50.968561	-11.148101	8.363296	144.226117	82.590143	-32.001456	-8.981289
